<svg xmlns="http://www.w3.org/2000/svg" xmlns:xlink="http://www.w3.org/1999/xlink" width="600" zoomAndPan="magnify" viewBox="0 0 450 202.499994" height="270" preserveAspectRatio="xMidYMid meet" version="1.2"><defs><clipPath id="f2ae68e88e"><path d="M 287.59375 92 L 374 92 L 374 137 L 287.59375 137 Z M 287.59375 92 "/></clipPath><clipPath id="ac647f9c02"><path d="M 412 85 L 438.71875 85 L 438.71875 112 L 412 112 Z M 412 85 "/></clipPath><clipPath id="3ded5e5d3f"><path d="M 317 25.488281 L 344 25.488281 L 344 52 L 317 52 Z M 317 25.488281 "/></clipPath><clipPath id="7af08898bd"><path d="M 304 136 L 331 136 L 331 162.402344 L 304 162.402344 Z M 304 136 "/></clipPath></defs><g id="c3f0604ac4"><path style=" stroke:none;fill-rule:nonzero;fill:#df5c64;fill-opacity:1;" d="M 385.289062 34.40625 C 383.242188 34.40625 381.203125 34.507812 379.164062 34.703125 C 377.128906 34.902344 375.109375 35.195312 373.101562 35.589844 C 371.09375 35.984375 369.109375 36.472656 367.148438 37.054688 C 365.191406 37.640625 363.261719 38.320312 361.367188 39.089844 C 359.472656 39.863281 357.621094 40.722656 355.808594 41.671875 C 354 42.625 352.238281 43.660156 350.527344 44.78125 C 348.816406 45.898438 347.164062 47.101562 345.566406 48.382812 C 343.972656 49.660156 342.441406 51.015625 340.980469 52.445312 C 339.515625 53.875 338.125 55.371094 336.804688 56.933594 C 335.484375 58.496094 334.246094 60.117188 333.082031 61.800781 C 331.917969 63.484375 330.839844 65.21875 329.847656 67.007812 C 328.851562 68.792969 327.945312 70.625 327.128906 72.5 C 326.3125 74.375 325.585938 76.285156 324.953125 78.230469 C 324.320312 80.175781 323.785156 82.148438 323.339844 84.144531 C 322.898438 86.140625 322.554688 88.15625 322.308594 90.183594 C 322.058594 92.214844 321.910156 94.253906 321.859375 96.296875 L 345.703125 96.296875 C 345.75 95.03125 345.859375 93.773438 346.027344 92.519531 C 346.195312 91.261719 346.425781 90.019531 346.710938 88.789062 C 347 87.554688 347.347656 86.339844 347.75 85.140625 C 348.15625 83.9375 348.617188 82.761719 349.132812 81.605469 C 349.652344 80.453125 350.222656 79.324219 350.847656 78.222656 C 351.476562 77.121094 352.152344 76.054688 352.878906 75.019531 C 353.609375 73.984375 354.382812 72.984375 355.207031 72.023438 C 356.03125 71.0625 356.898438 70.144531 357.8125 69.265625 C 358.722656 68.386719 359.675781 67.554688 360.667969 66.769531 C 361.660156 65.984375 362.6875 65.246094 363.75 64.558594 C 364.8125 63.871094 365.90625 63.234375 367.027344 62.652344 C 368.152344 62.070312 369.300781 61.542969 370.476562 61.070312 C 371.648438 60.597656 372.84375 60.179688 374.058594 59.820312 C 375.273438 59.464844 376.5 59.164062 377.742188 58.925781 C 378.988281 58.683594 380.238281 58.503906 381.5 58.382812 C 382.757812 58.261719 384.023438 58.203125 385.289062 58.203125 L 385.730469 58.203125 L 385.730469 34.40625 Z M 385.289062 34.40625 "/><g clip-rule="nonzero" clip-path="url(#f2ae68e88e)"><path style=" stroke:none;fill-rule:nonzero;fill:#f5b054;fill-opacity:1;" d="M 288.027344 104.65625 C 289.050781 106.429688 290.160156 108.144531 291.347656 109.8125 C 292.539062 111.476562 293.804688 113.078125 295.148438 114.621094 C 296.492188 116.164062 297.910156 117.636719 299.398438 119.042969 C 300.882812 120.445312 302.433594 121.777344 304.050781 123.03125 C 305.667969 124.285156 307.339844 125.460938 309.066406 126.554688 C 310.796875 127.648438 312.574219 128.65625 314.402344 129.578125 C 316.226562 130.5 318.09375 131.328125 320.003906 132.070312 C 321.910156 132.8125 323.847656 133.457031 325.816406 134.011719 C 327.785156 134.566406 329.777344 135.023438 331.792969 135.382812 C 333.804688 135.746094 335.832031 136.007812 337.871094 136.171875 C 339.910156 136.339844 341.953125 136.402344 344 136.371094 C 346.046875 136.339844 348.085938 136.207031 350.117188 135.976562 C 352.148438 135.75 354.167969 135.421875 356.167969 134.996094 C 358.171875 134.570312 360.144531 134.050781 362.097656 133.4375 C 364.046875 132.820312 365.964844 132.109375 367.847656 131.308594 C 369.730469 130.507812 371.570312 129.617188 373.367188 128.640625 L 361.445312 107.984375 C 360.324219 108.578125 359.179688 109.117188 358.011719 109.601562 C 356.839844 110.082031 355.648438 110.511719 354.4375 110.878906 C 353.226562 111.246094 352.003906 111.558594 350.761719 111.808594 C 349.519531 112.0625 348.269531 112.253906 347.011719 112.382812 C 345.753906 112.515625 344.488281 112.585938 343.222656 112.597656 C 341.957031 112.605469 340.695312 112.554688 339.433594 112.445312 C 338.171875 112.335938 336.917969 112.164062 335.675781 111.933594 C 334.429688 111.699219 333.199219 111.410156 331.980469 111.0625 C 330.765625 110.710938 329.566406 110.304688 328.390625 109.839844 C 327.210938 109.375 326.058594 108.855469 324.929688 108.28125 C 323.804688 107.707031 322.703125 107.082031 321.636719 106.398438 C 320.570312 105.71875 319.535156 104.988281 318.539062 104.210938 C 317.539062 103.433594 316.582031 102.605469 315.664062 101.734375 C 314.746094 100.863281 313.871094 99.949219 313.039062 98.996094 C 312.207031 98.039062 311.425781 97.046875 310.691406 96.019531 C 309.953125 94.988281 309.269531 93.925781 308.636719 92.828125 C 308.574219 92.691406 308.503906 92.558594 308.425781 92.433594 L 287.820312 104.332031 Z M 288.027344 104.65625 "/></g><path style=" stroke:none;fill-rule:nonzero;fill:#4ac4b6;fill-opacity:1;" d="M 403.84375 151.226562 C 404.867188 149.453125 405.800781 147.636719 406.648438 145.773438 C 407.496094 143.914062 408.25 142.011719 408.914062 140.078125 C 409.574219 138.144531 410.144531 136.179688 410.617188 134.191406 C 411.089844 132.199219 411.464844 130.191406 411.742188 128.164062 C 412.023438 126.140625 412.203125 124.105469 412.285156 122.058594 C 412.367188 120.015625 412.351562 117.972656 412.234375 115.929688 C 412.121094 113.886719 411.90625 111.855469 411.59375 109.835938 C 411.28125 107.8125 410.871094 105.8125 410.367188 103.828125 C 409.859375 101.847656 409.261719 99.894531 408.566406 97.96875 C 407.871094 96.046875 407.085938 94.160156 406.207031 92.3125 C 405.332031 90.464844 404.367188 88.664062 403.316406 86.910156 C 402.265625 85.152344 401.132812 83.453125 399.917969 81.808594 C 398.699219 80.164062 397.410156 78.582031 396.039062 77.0625 C 394.671875 75.539062 393.230469 74.089844 391.722656 72.710938 C 390.214844 71.328125 388.640625 70.023438 387.007812 68.792969 C 385.371094 67.566406 383.679688 66.417969 381.933594 65.351562 L 370.035156 86.027344 C 371.109375 86.703125 372.144531 87.425781 373.148438 88.195312 C 374.148438 88.96875 375.113281 89.785156 376.039062 90.652344 C 376.960938 91.515625 377.84375 92.421875 378.679688 93.371094 C 379.515625 94.320312 380.304688 95.308594 381.046875 96.332031 C 381.789062 97.355469 382.480469 98.414062 383.125 99.507812 C 383.765625 100.597656 384.351562 101.714844 384.886719 102.863281 C 385.417969 104.011719 385.894531 105.179688 386.316406 106.375 C 386.738281 107.566406 387.101562 108.777344 387.40625 110.007812 C 387.710938 111.234375 387.957031 112.472656 388.144531 113.726562 C 388.332031 114.976562 388.457031 116.234375 388.523438 117.5 C 388.589844 118.761719 388.59375 120.027344 388.539062 121.289062 C 388.484375 122.554688 388.367188 123.8125 388.191406 125.066406 C 388.015625 126.320312 387.777344 127.5625 387.484375 128.792969 C 387.1875 130.023438 386.835938 131.234375 386.421875 132.433594 C 386.011719 133.628906 385.542969 134.804688 385.019531 135.957031 C 384.496094 137.105469 383.917969 138.230469 383.285156 139.328125 C 383.207031 139.464844 383.121094 139.597656 383.027344 139.722656 L 403.660156 151.621094 Z M 403.84375 151.226562 "/><g clip-rule="nonzero" clip-path="url(#ac647f9c02)"><path style=" stroke:none;fill-rule:nonzero;fill:#4ac4b6;fill-opacity:1;" d="M 438.328125 98.953125 C 438.328125 99.804688 438.246094 100.648438 438.078125 101.488281 C 437.914062 102.324219 437.667969 103.136719 437.339844 103.925781 C 437.011719 104.710938 436.613281 105.460938 436.140625 106.171875 C 435.664062 106.878906 435.125 107.535156 434.523438 108.140625 C 433.921875 108.742188 433.265625 109.28125 432.554688 109.753906 C 431.84375 110.230469 431.097656 110.628906 430.308594 110.957031 C 429.519531 111.28125 428.707031 111.527344 427.871094 111.695312 C 427.035156 111.863281 426.191406 111.945312 425.335938 111.945312 C 424.484375 111.945312 423.636719 111.863281 422.800781 111.695312 C 421.964844 111.527344 421.152344 111.28125 420.363281 110.957031 C 419.578125 110.628906 418.828125 110.230469 418.117188 109.753906 C 417.410156 109.28125 416.753906 108.742188 416.148438 108.140625 C 415.546875 107.535156 415.007812 106.878906 414.535156 106.171875 C 414.058594 105.460938 413.660156 104.710938 413.332031 103.925781 C 413.007812 103.136719 412.761719 102.324219 412.59375 101.488281 C 412.425781 100.648438 412.34375 99.804688 412.34375 98.953125 C 412.34375 98.097656 412.425781 97.253906 412.59375 96.417969 C 412.761719 95.582031 413.007812 94.769531 413.332031 93.980469 C 413.660156 93.191406 414.058594 92.441406 414.535156 91.734375 C 415.007812 91.023438 415.546875 90.367188 416.148438 89.765625 C 416.753906 89.160156 417.410156 88.621094 418.117188 88.148438 C 418.828125 87.675781 419.578125 87.273438 420.363281 86.949219 C 421.152344 86.621094 421.964844 86.375 422.800781 86.207031 C 423.636719 86.042969 424.484375 85.960938 425.335938 85.960938 C 426.191406 85.960938 427.035156 86.042969 427.871094 86.207031 C 428.707031 86.375 429.519531 86.621094 430.308594 86.949219 C 431.097656 87.273438 431.84375 87.675781 432.554688 88.148438 C 433.265625 88.621094 433.921875 89.160156 434.523438 89.765625 C 435.125 90.367188 435.664062 91.023438 436.140625 91.734375 C 436.613281 92.441406 437.011719 93.191406 437.339844 93.980469 C 437.667969 94.769531 437.914062 95.582031 438.078125 96.417969 C 438.246094 97.253906 438.328125 98.097656 438.328125 98.953125 Z M 438.328125 98.953125 "/></g><g clip-rule="nonzero" clip-path="url(#3ded5e5d3f)"><path style=" stroke:none;fill-rule:nonzero;fill:#df5c64;fill-opacity:1;" d="M 343.585938 38.484375 C 343.585938 39.335938 343.5 40.179688 343.335938 41.015625 C 343.167969 41.855469 342.921875 42.667969 342.597656 43.453125 C 342.269531 44.242188 341.871094 44.992188 341.394531 45.699219 C 340.921875 46.410156 340.382812 47.066406 339.78125 47.667969 C 339.175781 48.273438 338.519531 48.8125 337.8125 49.285156 C 337.101562 49.757812 336.351562 50.160156 335.566406 50.484375 C 334.777344 50.8125 333.964844 51.058594 333.128906 51.226562 C 332.289062 51.390625 331.445312 51.476562 330.59375 51.476562 C 329.738281 51.476562 328.894531 51.390625 328.058594 51.226562 C 327.222656 51.058594 326.410156 50.8125 325.621094 50.484375 C 324.832031 50.160156 324.082031 49.757812 323.375 49.285156 C 322.664062 48.8125 322.007812 48.273438 321.40625 47.667969 C 320.800781 47.066406 320.261719 46.410156 319.789062 45.699219 C 319.316406 44.992188 318.914062 44.242188 318.589844 43.453125 C 318.261719 42.667969 318.015625 41.855469 317.847656 41.015625 C 317.683594 40.179688 317.601562 39.335938 317.601562 38.484375 C 317.601562 37.628906 317.683594 36.785156 317.847656 35.949219 C 318.015625 35.109375 318.261719 34.296875 318.589844 33.511719 C 318.914062 32.722656 319.316406 31.972656 319.789062 31.265625 C 320.261719 30.554688 320.800781 29.898438 321.40625 29.296875 C 322.007812 28.691406 322.664062 28.152344 323.375 27.679688 C 324.082031 27.207031 324.832031 26.804688 325.621094 26.480469 C 326.410156 26.152344 327.222656 25.90625 328.058594 25.738281 C 328.894531 25.574219 329.738281 25.488281 330.59375 25.488281 C 331.445312 25.488281 332.289062 25.574219 333.128906 25.738281 C 333.964844 25.90625 334.777344 26.152344 335.566406 26.480469 C 336.351562 26.804688 337.101562 27.207031 337.8125 27.679688 C 338.519531 28.152344 339.175781 28.691406 339.78125 29.296875 C 340.382812 29.898438 340.921875 30.554688 341.394531 31.265625 C 341.871094 31.972656 342.269531 32.722656 342.597656 33.511719 C 342.921875 34.296875 343.167969 35.109375 343.335938 35.949219 C 343.5 36.785156 343.585938 37.628906 343.585938 38.484375 Z M 343.585938 38.484375 "/></g><g clip-rule="nonzero" clip-path="url(#7af08898bd)"><path style=" stroke:none;fill-rule:nonzero;fill:#f5b054;fill-opacity:1;" d="M 330.59375 149.433594 C 330.59375 150.285156 330.507812 151.128906 330.34375 151.96875 C 330.175781 152.804688 329.929688 153.617188 329.601562 154.40625 C 329.277344 155.191406 328.875 155.941406 328.402344 156.652344 C 327.929688 157.359375 327.390625 158.015625 326.785156 158.621094 C 326.183594 159.222656 325.527344 159.761719 324.816406 160.234375 C 324.109375 160.710938 323.359375 161.109375 322.570312 161.4375 C 321.785156 161.761719 320.972656 162.007812 320.132812 162.175781 C 319.296875 162.34375 318.453125 162.425781 317.601562 162.425781 C 316.746094 162.425781 315.902344 162.34375 315.066406 162.175781 C 314.226562 162.007812 313.414062 161.761719 312.628906 161.4375 C 311.839844 161.109375 311.089844 160.710938 310.382812 160.234375 C 309.671875 159.761719 309.015625 159.222656 308.414062 158.621094 C 307.808594 158.015625 307.269531 157.359375 306.796875 156.652344 C 306.324219 155.941406 305.921875 155.191406 305.597656 154.40625 C 305.269531 153.617188 305.023438 152.804688 304.855469 151.96875 C 304.691406 151.128906 304.605469 150.285156 304.605469 149.433594 C 304.605469 148.578125 304.691406 147.734375 304.855469 146.898438 C 305.023438 146.0625 305.269531 145.25 305.597656 144.460938 C 305.921875 143.671875 306.324219 142.921875 306.796875 142.214844 C 307.269531 141.503906 307.808594 140.847656 308.414062 140.246094 C 309.015625 139.640625 309.671875 139.101562 310.382812 138.628906 C 311.089844 138.15625 311.839844 137.753906 312.628906 137.429688 C 313.414062 137.101562 314.226562 136.855469 315.066406 136.6875 C 315.902344 136.523438 316.746094 136.441406 317.601562 136.441406 C 318.453125 136.441406 319.296875 136.523438 320.132812 136.6875 C 320.972656 136.855469 321.785156 137.101562 322.570312 137.429688 C 323.359375 137.753906 324.109375 138.15625 324.816406 138.628906 C 325.527344 139.101562 326.183594 139.640625 326.785156 140.246094 C 327.390625 140.847656 327.929688 141.503906 328.402344 142.214844 C 328.875 142.921875 329.277344 143.671875 329.601562 144.460938 C 329.929688 145.25 330.175781 146.0625 330.34375 146.898438 C 330.507812 147.734375 330.59375 148.578125 330.59375 149.433594 Z M 330.59375 149.433594 "/></g><g style="fill:#f5b054;fill-opacity:1;"><g transform="translate(12.455821, 113.297392)"><path style="stroke:none" d="M 77.71875 -63.859375 C 76.226562 -63.859375 74.988281 -64.414062 74 -65.53125 C 73.007812 -66.65625 72.550781 -67.96875 72.625 -69.46875 C 72.757812 -70.957031 73.40625 -72.226562 74.5625 -73.28125 C 75.71875 -74.34375 77.046875 -74.875 78.546875 -74.875 C 80.242188 -74.875 81.550781 -74.34375 82.46875 -73.28125 C 83.382812 -72.226562 83.773438 -70.921875 83.640625 -69.359375 C 83.503906 -67.859375 82.875 -66.566406 81.75 -65.484375 C 80.625 -64.398438 79.28125 -63.859375 77.71875 -63.859375 Z M 73.953125 -25.390625 C 72.929688 -23.492188 71.671875 -21.609375 70.171875 -19.734375 C 68.679688 -17.867188 66.914062 -16.289062 64.875 -15 C 62.832031 -13.707031 60.484375 -13.023438 57.828125 -12.953125 C 54.296875 -12.890625 51.59375 -13.804688 49.71875 -15.703125 C 47.851562 -17.609375 46.75 -20.125 46.40625 -23.25 C 46.070312 -26.382812 46.445312 -29.769531 47.53125 -33.40625 C 48.613281 -37.039062 50.28125 -40.492188 52.53125 -43.765625 C 55.320312 -47.773438 58.585938 -50.898438 62.328125 -53.140625 C 66.066406 -55.390625 69.703125 -56.71875 73.234375 -57.125 C 76.640625 -57.53125 80.328125 -57.320312 84.296875 -56.5 C 88.273438 -55.6875 91.796875 -53.921875 94.859375 -51.203125 C 95.203125 -50.660156 95.050781 -49.878906 94.40625 -48.859375 C 93.757812 -47.835938 92.992188 -46.96875 92.109375 -46.25 C 91.222656 -45.539062 90.507812 -45.390625 89.96875 -45.796875 C 87.925781 -47.429688 85.660156 -48.585938 83.171875 -49.265625 C 80.691406 -49.941406 78.332031 -50.179688 76.09375 -49.984375 C 72.96875 -49.710938 70.039062 -48.398438 67.3125 -46.046875 C 64.59375 -43.703125 62.351562 -40.726562 60.59375 -37.125 C 58.882812 -33.726562 57.894531 -30.5 57.625 -27.4375 C 57.351562 -24.375 57.863281 -22.265625 59.15625 -21.109375 C 60.71875 -19.753906 62.875 -20.164062 65.625 -22.34375 C 68.382812 -24.519531 70.957031 -28.054688 73.34375 -32.953125 C 74.15625 -34.648438 74.984375 -36.550781 75.828125 -38.65625 C 76.679688 -40.757812 77.445312 -42.867188 78.125 -44.984375 C 78.46875 -45.523438 79.148438 -45.8125 80.171875 -45.84375 C 81.191406 -45.882812 82.28125 -45.765625 83.4375 -45.484375 C 84.59375 -45.210938 85.59375 -44.859375 86.4375 -44.421875 C 87.289062 -43.984375 87.753906 -43.488281 87.828125 -42.9375 C 86.460938 -38.113281 85.21875 -33.726562 84.09375 -29.78125 C 82.976562 -25.84375 81.875 -22.304688 80.78125 -19.171875 C 79.425781 -15.296875 77.269531 -11.796875 74.3125 -8.671875 C 71.351562 -5.546875 67.863281 -2.875 63.84375 -0.65625 C 59.832031 1.550781 55.550781 3.28125 51 4.53125 C 46.445312 5.789062 41.835938 6.539062 37.171875 6.78125 C 32.515625 7.019531 28.0625 6.660156 23.8125 5.703125 C 19.5625 4.753906 15.785156 3.222656 12.484375 1.109375 C 9.191406 -0.992188 6.628906 -3.773438 4.796875 -7.234375 C 3.023438 -10.503906 2.101562 -14.007812 2.03125 -17.75 C 1.96875 -21.488281 2.71875 -25.070312 4.28125 -28.5 C 5.84375 -31.9375 8.15625 -34.910156 11.21875 -37.421875 C 14.28125 -39.941406 18.019531 -41.644531 22.4375 -42.53125 C 26.851562 -43.414062 31.882812 -43.144531 37.53125 -41.71875 C 38.28125 -41.507812 38.753906 -41.03125 38.953125 -40.28125 C 39.160156 -39.539062 39.160156 -38.742188 38.953125 -37.890625 C 38.753906 -37.046875 38.382812 -36.332031 37.84375 -35.75 C 37.300781 -35.175781 36.617188 -34.957031 35.796875 -35.09375 C 31.648438 -35.769531 28.015625 -35.492188 24.890625 -34.265625 C 21.765625 -33.046875 19.25 -31.226562 17.34375 -28.8125 C 15.4375 -26.394531 14.191406 -23.722656 13.609375 -20.796875 C 13.035156 -17.878906 13.191406 -15.0625 14.078125 -12.34375 C 15.023438 -9.351562 16.753906 -6.988281 19.265625 -5.25 C 21.785156 -3.519531 24.765625 -2.332031 28.203125 -1.6875 C 31.640625 -1.039062 35.296875 -0.921875 39.171875 -1.328125 C 43.046875 -1.734375 46.90625 -2.597656 50.75 -3.921875 C 54.59375 -5.253906 58.160156 -6.957031 61.453125 -9.03125 C 64.753906 -11.101562 67.507812 -13.515625 69.71875 -16.265625 C 71.925781 -19.023438 73.335938 -22.066406 73.953125 -25.390625 Z M 73.953125 -25.390625 "/></g></g><g style="fill:#df5c64;fill-opacity:1;"><g transform="translate(111.504219, 113.297392)"><path style="stroke:none" d="M -13.15625 23.96875 C -14.113281 23.96875 -14.742188 23.675781 -15.046875 23.09375 C -15.347656 22.519531 -15.363281 21.910156 -15.09375 21.265625 C -14.820312 20.617188 -14.347656 20.226562 -13.671875 20.09375 C -9.378906 19.34375 -5.804688 18 -2.953125 16.0625 C -0.0976562 14.125 2.296875 11.519531 4.234375 8.25 C 6.171875 4.988281 7.851562 1.050781 9.28125 -3.5625 C 10.707031 -8.1875 12.117188 -13.59375 13.515625 -19.78125 C 14.910156 -25.96875 16.492188 -32.972656 18.265625 -40.796875 C 18.535156 -42.085938 19.316406 -43.085938 20.609375 -43.796875 C 21.898438 -44.515625 23.289062 -44.90625 24.78125 -44.96875 C 26.28125 -45.039062 27.539062 -44.804688 28.5625 -44.265625 C 29.582031 -43.722656 29.957031 -42.804688 29.6875 -41.515625 C 27.507812 -30.835938 25.226562 -21.484375 22.84375 -13.453125 C 20.46875 -5.429688 17.695312 1.3125 14.53125 6.78125 C 11.375 12.257812 7.566406 16.425781 3.109375 19.28125 C -1.335938 22.132812 -6.757812 23.695312 -13.15625 23.96875 Z M -13.15625 23.96875 "/></g></g><g style="fill:#df5c64;fill-opacity:1;"><g transform="translate(136.699084, 113.297392)"><path style="stroke:none" d="M 57.828125 -61.5 L 49.78125 -55.078125 C 49.164062 -54.597656 48.378906 -54.375 47.421875 -54.40625 C 46.472656 -54.445312 45.609375 -54.6875 44.828125 -55.125 C 44.046875 -55.570312 43.535156 -56.117188 43.296875 -56.765625 C 43.054688 -57.410156 43.3125 -58.039062 44.0625 -58.65625 C 44.875 -59.332031 45.976562 -60.210938 47.375 -61.296875 C 48.769531 -62.390625 50.195312 -63.445312 51.65625 -64.46875 C 53.125 -65.488281 54.265625 -66.269531 55.078125 -66.8125 C 56.035156 -67.425781 57.226562 -67.710938 58.65625 -67.671875 C 60.082031 -67.640625 61.164062 -67.351562 61.90625 -66.8125 C 62.65625 -66.269531 63.59375 -65.382812 64.71875 -64.15625 C 65.84375 -62.9375 66.929688 -61.695312 67.984375 -60.4375 C 69.035156 -59.175781 69.832031 -58.238281 70.375 -57.625 C 70.851562 -57.082031 70.851562 -56.570312 70.375 -56.09375 C 69.90625 -55.625 69.207031 -55.269531 68.28125 -55.03125 C 67.363281 -54.789062 66.445312 -54.6875 65.53125 -54.71875 C 64.613281 -54.757812 63.914062 -55.015625 63.4375 -55.484375 Z M 74.15625 -40.796875 C 74.289062 -41.410156 74.96875 -41.90625 76.1875 -42.28125 C 77.414062 -42.65625 78.796875 -42.890625 80.328125 -42.984375 C 81.859375 -43.085938 83.148438 -43.019531 84.203125 -42.78125 C 85.253906 -42.550781 85.710938 -42.128906 85.578125 -41.515625 C 84.628906 -37.429688 83.691406 -33.738281 82.765625 -30.4375 C 81.847656 -27.144531 80.945312 -24.019531 80.0625 -21.0625 C 79.1875 -18.101562 78.269531 -15.023438 77.3125 -11.828125 C 76.226562 -8.085938 74.441406 -5.113281 71.953125 -2.90625 C 69.472656 -0.695312 66.769531 0.742188 63.84375 1.421875 C 60.925781 2.109375 58.125 2.039062 55.4375 1.21875 C 52.75 0.40625 50.625 -1.085938 49.0625 -3.265625 C 46.675781 -0.953125 43.96875 0.578125 40.9375 1.328125 C 37.914062 2.078125 35.007812 2.023438 32.21875 1.171875 C 29.4375 0.316406 27.265625 -1.226562 25.703125 -3.46875 C 23.460938 -1.226562 20.910156 0.296875 18.046875 1.109375 C 15.191406 1.929688 12.421875 2.050781 9.734375 1.46875 C 7.054688 0.894531 4.816406 -0.335938 3.015625 -2.234375 C 1.210938 -4.140625 0.207031 -6.691406 0 -9.890625 C -0.0703125 -11.660156 0.160156 -13.734375 0.703125 -16.109375 C 1.253906 -18.492188 2.242188 -21.21875 3.671875 -24.28125 L 5.921875 -23.359375 C 4.421875 -19.273438 3.820312 -15.941406 4.125 -13.359375 C 4.4375 -10.773438 5.304688 -8.90625 6.734375 -7.75 C 8.160156 -6.59375 9.773438 -6.066406 11.578125 -6.171875 C 13.378906 -6.273438 15.078125 -6.972656 16.671875 -8.265625 C 18.273438 -9.554688 19.414062 -11.390625 20.09375 -13.765625 C 21.25 -17.640625 22.367188 -21.632812 23.453125 -25.75 C 24.546875 -29.863281 25.84375 -34.878906 27.34375 -40.796875 C 27.476562 -41.410156 28.171875 -41.90625 29.421875 -42.28125 C 30.679688 -42.65625 32.054688 -42.890625 33.546875 -42.984375 C 35.046875 -43.085938 36.335938 -43.019531 37.421875 -42.78125 C 38.515625 -42.550781 38.960938 -42.128906 38.765625 -41.515625 C 37.742188 -37.429688 36.769531 -33.738281 35.84375 -30.4375 C 34.925781 -27.144531 34.039062 -24.019531 33.1875 -21.0625 C 32.34375 -18.101562 31.445312 -15.023438 30.5 -11.828125 C 30.363281 -11.285156 30.191406 -10.757812 29.984375 -10.25 C 29.785156 -9.738281 29.582031 -9.242188 29.375 -8.765625 C 30.601562 -7.140625 32.1875 -6.273438 34.125 -6.171875 C 36.0625 -6.066406 37.945312 -6.675781 39.78125 -8 C 41.613281 -9.332031 42.90625 -11.253906 43.65625 -13.765625 C 44.8125 -17.640625 45.929688 -21.632812 47.015625 -25.75 C 48.109375 -29.863281 49.398438 -34.878906 50.890625 -40.796875 C 51.035156 -41.410156 51.71875 -41.90625 52.9375 -42.28125 C 54.164062 -42.65625 55.539062 -42.890625 57.0625 -42.984375 C 58.59375 -43.085938 59.882812 -43.019531 60.9375 -42.78125 C 62 -42.550781 62.460938 -42.128906 62.328125 -41.515625 C 61.367188 -37.429688 60.429688 -33.738281 59.515625 -30.4375 C 58.597656 -27.144531 57.695312 -24.019531 56.8125 -21.0625 C 55.925781 -18.101562 55.007812 -15.023438 54.0625 -11.828125 C 53.925781 -11.210938 53.738281 -10.648438 53.5 -10.140625 C 53.257812 -9.640625 53.003906 -9.113281 52.734375 -8.5625 C 54.023438 -7.070312 55.640625 -6.289062 57.578125 -6.21875 C 59.515625 -6.15625 61.367188 -6.785156 63.140625 -8.109375 C 64.910156 -9.429688 66.164062 -11.316406 66.90625 -13.765625 C 68.0625 -17.640625 69.179688 -21.632812 70.265625 -25.75 C 71.359375 -29.863281 72.65625 -34.878906 74.15625 -40.796875 Z M 74.15625 -40.796875 "/></g></g><g style="fill:#4ac4b6;fill-opacity:1;"><g transform="translate(217.592975, 113.297392)"><path style="stroke:none" d="M 41.71875 -43.96875 C 46.269531 -43.6875 49.875 -42.425781 52.53125 -40.1875 C 55.1875 -37.945312 57.003906 -35.125 57.984375 -31.71875 C 58.972656 -28.320312 59.191406 -24.71875 58.640625 -20.90625 C 58.097656 -17.101562 56.84375 -13.484375 54.875 -10.046875 C 52.90625 -6.609375 50.285156 -3.71875 47.015625 -1.375 C 43.753906 0.96875 39.945312 2.34375 35.59375 2.75 C 32.8125 3.019531 30.195312 2.523438 27.75 1.265625 C 25.300781 0.015625 23.328125 -1.800781 21.828125 -4.1875 C 20.398438 -2.28125 18.75 -0.882812 16.875 0 C 15.007812 0.882812 13.125 1.289062 11.21875 1.21875 C 8.226562 1.15625 5.847656 0.238281 4.078125 -1.53125 C 2.304688 -3.300781 1.113281 -5.507812 0.5 -8.15625 C -0.101562 -10.8125 -0.1875 -13.582031 0.25 -16.46875 C 0.695312 -19.363281 1.632812 -21.96875 3.0625 -24.28125 L 5.296875 -23.359375 C 3.804688 -19.347656 3.210938 -16.050781 3.515625 -13.46875 C 3.828125 -10.882812 4.644531 -8.992188 5.96875 -7.796875 C 7.289062 -6.609375 8.851562 -6.066406 10.65625 -6.171875 C 12.457031 -6.273438 14.175781 -6.9375 15.8125 -8.15625 C 17.445312 -9.382812 18.632812 -11.117188 19.375 -13.359375 C 19.375 -14.585938 19.476562 -15.847656 19.6875 -17.140625 C 20.03125 -19.242188 20.660156 -21.535156 21.578125 -24.015625 C 22.492188 -26.503906 23.597656 -29.109375 24.890625 -31.828125 C 25.429688 -32.296875 26.28125 -32.664062 27.4375 -32.9375 C 28.59375 -33.21875 29.832031 -33.390625 31.15625 -33.453125 C 32.488281 -33.523438 33.628906 -33.457031 34.578125 -33.25 C 35.523438 -33.050781 36 -32.644531 36 -32.03125 C 33.6875 -27.539062 32.160156 -23.085938 31.421875 -18.671875 C 31.003906 -16.015625 30.984375 -13.597656 31.359375 -11.421875 C 31.734375 -9.242188 32.394531 -7.539062 33.34375 -6.3125 C 34.300781 -5.09375 35.425781 -4.585938 36.71875 -4.796875 C 38.894531 -5.128906 40.78125 -6.332031 42.375 -8.40625 C 43.976562 -10.488281 45.171875 -12.972656 45.953125 -15.859375 C 46.734375 -18.753906 47.085938 -21.660156 47.015625 -24.578125 C 46.953125 -27.503906 46.375 -30.070312 45.28125 -32.28125 C 44.195312 -34.488281 42.535156 -35.863281 40.296875 -36.40625 C 36.347656 -37.5 31.144531 -36.925781 24.6875 -34.6875 C 24 -34.539062 23.46875 -34.859375 23.09375 -35.640625 C 22.726562 -36.429688 22.613281 -37.316406 22.75 -38.296875 C 22.882812 -39.285156 23.328125 -39.984375 24.078125 -40.390625 C 27.335938 -41.753906 30.460938 -42.722656 33.453125 -43.296875 C 36.441406 -43.878906 39.195312 -44.101562 41.71875 -43.96875 Z M 41.71875 -43.96875 "/></g></g></g></svg>